<?xml version="1.0" encoding="UTF-8"?>
<svg width="562px" height="160px" viewBox="0 0 562 160" version="1.1" xmlns="http://www.w3.org/2000/svg" xmlns:xlink="http://www.w3.org/1999/xlink">
    <!-- Generator: Sketch 49 (51002) - http://www.bohemiancoding.com/sketch -->
    <title>blank</title>
    <desc>Created with Sketch.</desc>
    <defs></defs>
    <g id="Elementer" stroke="none" stroke-width="1" fill="none" fill-rule="evenodd">
        <g id="Logo-animering" transform="translate(-147.000000, -600.000000)" fill="#FE386E">
            <path d="M192.433001,670.76524 C197.204504,658.936446 208.822075,649.805447 223.136582,649.805447 C244.919528,649.805447 268.15467,669.105058 268.15467,704.798962 C268.15467,739.24773 245.126984,760 221.684385,760 C208.407161,760 196.78959,752.32166 192.433001,740.907912 L192.433001,757.302205 L161.72942,757.302205 L161.72942,602.075227 L147,602.075227 L147,600 L192.433001,600 L192.433001,670.76524 Z M209.444444,750.661479 C220.854559,750.661479 232.887043,738.417639 232.887043,706.044099 C232.887043,674.500649 222.099299,660.181582 208.822075,660.181582 C202.598376,660.181582 194.300111,665.992218 192.433001,676.783398 L192.433001,734.889754 C194.300111,744.64332 201.976006,750.661479 209.444444,750.661479 Z M276.867848,757.302205 L276.867848,755.226978 L291.597268,755.226978 L291.597268,602.075227 L276.867848,602.075227 L276.867848,600 L322.093392,600 L322.093392,755.226978 L336.822813,755.226978 L336.822813,757.302205 L276.867848,757.302205 Z M378.314138,760 C360.680325,760 346.158361,747.963684 346.158361,731.984436 C346.158361,712.477302 364.622001,710.609598 384.33038,700.648508 C390.968992,697.328145 396.362865,693.592737 400.097084,690.272374 C404.66113,686.329442 406.735696,682.386511 406.735696,675.330739 C406.735696,661.841764 399.889627,653.125811 390.139166,653.125811 C380.181248,653.125811 370.22333,659.766537 375.409745,687.367056 C372.712809,691.102464 366.281654,692.970169 362.132521,692.970169 C353.419343,692.970169 345.950904,689.23476 345.950904,682.178988 C345.950904,673.87808 354.664083,667.859922 362.962348,662.879377 C374.372462,656.031128 385.57512,649.182879 403.831303,649.182879 C421.465116,649.182879 437.024363,654.57847 437.024363,682.178988 L437.024363,755.226978 L451.753784,755.226978 L451.753784,757.302205 L408.602805,757.302205 L406.528239,737.795071 C402.79402,752.736706 391.176449,760 378.314138,760 Z M393.251015,748.586252 C400.097084,748.586252 405.905869,741.322957 406.113326,729.079118 L406.735696,686.536965 C404.868586,688.819715 402.379107,690.894942 399.889627,692.970169 C389.516796,701.478599 378.106681,708.949416 378.106681,722.438392 C378.106681,736.342412 384.33038,748.586252 393.251015,748.586252 Z M456.732743,757.302205 L456.732743,755.226978 L471.462163,755.226978 L471.462163,678.858625 L456.732743,668.690013 L456.732743,667.859922 L502.165744,648.352789 L502.165744,672.217899 C506.10742,656.861219 518.969731,649.805447 534.321521,649.805447 C554.237357,649.805447 566.684755,662.049287 566.684755,688.404669 L566.684755,755.226978 L581.414175,755.226978 L581.414175,757.302205 L523.32632,757.302205 L523.32632,755.226978 L535.981174,755.226978 L535.981174,688.197147 C535.981174,667.859922 529.757475,659.766537 519.5921,659.766537 C508.181986,659.766537 502.165744,668.48249 502.165744,688.197147 L502.165744,755.226978 L514.820598,755.226978 L514.820598,757.302205 L456.732743,757.302205 Z M595.728682,757.302205 L595.728682,602.075227 L580.999262,602.075227 L580.999262,600 L626.432263,600 L626.432263,694.63035 L663.152086,653.125811 L699.456995,653.125811 L681.408269,673.463035 L648.007752,673.463035 L626.847176,697.328145 L661.284976,697.328145 L709,757.302205 L671.450351,757.302205 L626.432263,700.440986 L626.432263,757.302205 L595.728682,757.302205 Z" id="blank"></path>
        </g>
    </g>
</svg>