<?xml version="1.0" encoding="utf-8"?>
<!-- Generator: Adobe Illustrator 22.1.0, SVG Export Plug-In . SVG Version: 6.00 Build 0)  -->
<svg version="1.1" id="Layer_1" xmlns="http://www.w3.org/2000/svg" xmlns:xlink="http://www.w3.org/1999/xlink" x="0px" y="0px"
	 viewBox="0 0 1920 1080" style="enable-background:new 0 0 1920 1080;" xml:space="preserve">
<g>
	<path d="M606.9,405.9v7.7c69.4,0,126,55.4,128.1,124.3H603.1v7.7h139.7v-7.7h-0.1C740.7,464.8,680.5,405.9,606.9,405.9z"/>
	<path d="M478.8,541.8L478.8,541.8c0-70.7,57.5-128.1,128.1-128.1v-7.7c-73.6,0-133.7,58.9-135.8,132h-62.2v7.7h62.2
		c2,73.1,62.2,132,135.8,132v-7.7C536.3,669.9,478.8,612.4,478.8,541.8z"/>
	<path d="M1510.1,537.9h-62.2c-0.5-17.6-4.4-35.3-12.1-52.3l0,0c-31-68.2-111.7-98.5-179.9-67.5l3.2,7
		c64.3-29.2,140.4-0.7,169.7,63.6l0,0c29.2,64.3,0.7,140.5-63.6,169.7l1.4,3l-1.4-3c-64.3,29.2-140.5,0.7-169.7-63.6l-7,3.2
		c22.7,50,72.2,79.6,123.9,79.6c18.8,0,37.8-3.9,56-12.2l0,0c48.7-22.2,78.1-69.7,79.6-119.9h62.2V537.9z"/>
	<path d="M1114.2,405.9v7.7c34.3,0,62.1,27.9,62.1,62.1c0,34.3-27.9,62.1-62.1,62.1c-38.5,0-69.9,31.3-69.9,69.9l0,132h7.7l0-132.7
		c0.4-34,28.1-61.5,62.1-61.5c38.5,0,69.8-31.3,69.8-69.9C1184,437.2,1152.7,405.9,1114.2,405.9z"/>
	<polygon points="883.1,536.3 852.9,506 852.9,506 687.9,341 682.4,346.5 844.7,508.8 844.7,508.8 877.7,541.8 847.4,572 847.4,572 
		748.4,671 753.9,676.5 850.1,580.2 888.6,541.8 883.2,536.3 	"/>
	<polygon points="951.9,572 921.6,541.8 954.6,508.8 954.6,508.8 1051,412.6 1045.4,407 946.3,505.9 946.4,506 910.7,541.7 
		916.1,547.2 916.1,547.2 946.4,577.5 946.4,577.5 979.4,610.5 984.9,605 951.9,572 	"/>
</g>
</svg>
