<?xml version="1.0" encoding="UTF-8" standalone="no"?><!DOCTYPE svg PUBLIC "-//W3C//DTD SVG 1.1//EN" "http://www.w3.org/Graphics/SVG/1.1/DTD/svg11.dtd"><svg width="100%" height="100%" viewBox="0 0 11393 8334" version="1.1" xmlns="http://www.w3.org/2000/svg" xmlns:xlink="http://www.w3.org/1999/xlink" xml:space="preserve" xmlns:serif="http://www.serif.com/" style="fill-rule:evenodd;clip-rule:evenodd;stroke-linejoin:round;stroke-miterlimit:1.41421;"><g id="bak"></g><rect id="clean" x="0" y="0" width="11392.1" height="8333.33" style="fill:none;"/><path d="M10056.7,1089.39l0,309.667l-1211.9,-699.694l268.179,-154.833l943.726,544.86Z" style="fill:#fce7a9;"/><path d="M8275.78,990.165l-498.588,-287.859l-3285.2,1896.71l536.358,309.667l-1005.67,580.625l-1474.99,-851.584l1139.76,-658.041l-2480.66,-1432.21l268.179,-154.833l3151.11,1819.29l3151.11,-1819.29l1743.16,1006.42l-268.179,154.833l-976.398,-563.724Z" style="fill:url(#_Linear1);"/><path d="M10324.9,2173.22l-268.179,154.834l0,-1393.5l268.179,-154.834" style="fill:url(#_Linear2);"/><path d="M10056.7,2328.06l-737.493,-503.209l201.135,-116.125l0,-309.666l-742.592,-428.736l67.045,-270.958l943.726,544.86l0,-464.5l268.179,154.834l0,1393.5Zm-1474.99,-851.584l268.179,154.834l134.089,-77.417l268.18,154.833l0,-154.833l-402.269,-232.25l-268.179,154.833Zm0,0l-804.538,-464.5l0,-309.666l1072.42,619.16l-267.879,155.006Z" style="fill:url(#_Linear3);"/><path d="M9364.1,3089.42l723.691,-433.76l-123.252,-458.243l-684.728,-395.328l-966.254,61.467l-572.853,253.32l-30.55,172.471l0,309.667l268.179,-154.833l1385.77,645.239Z" style="fill:url(#_Linear4);"/><path d="M4492,2599.01l3285.2,-1896.71l0,309.666l-1273.85,735.459l0,774.166l-670.448,387.084l-14.719,5130.43l-268.179,154.833l14.719,-5904.6l-804.538,464.5l-268.179,-154.833Z" style="fill:url(#_Linear5);"/><path d="M5281.82,8039.11l14.718,-5594.93l268.18,-154.834l-14.719,5904.6l-268.179,-154.833Z" style="fill:url(#_Linear6);"/><path d="M5028.36,2908.68l0,619.333l-1005.67,580.625l0,-619.333l1005.67,-580.625Z" style="fill:url(#_Linear7);"/><path d="M9788.54,470.056l0,309.666l-2614.75,1509.63l0,-309.666l2614.75,-1509.63Z" style="fill:url(#_Linear8);"/><path d="M6905.61,2134.51l268.179,-154.833l0,309.666l-268.179,-154.833Z" style="fill:url(#_Linear9);"/><path d="M6905.61,1824.85l0,309.667l268.179,-154.833l-268.179,-154.834Z" style="fill:url(#_Linear10);"/><path d="M3218.15,5734.39l804.537,232.249l1005.67,116.125l1005.67,-270.958l1005.67,-580.625l-33.523,-716.104l-435.791,-406.438c0,0 544.717,311.535 704.753,759.106l43.413,-56.193l0,278.841c0.392,13.089 0.398,26.257 0,39.499l0,0.002l0,0c-8.462,281.776 -199.663,597.484 -748.166,914.162c-1684.04,972.281 -3352.24,0 -3352.24,0l0,0l0,0.001l-201.134,-116.126l0,-309.667l201.134,116.125l0.001,0.001Z" style="fill:#fbbf9f;"/><path d="M6302.21,4263.47l-207.54,-112.427l6.406,-313.364l201.134,116.125l0.002,0.001l0,-0.002c321.45,25.745 771.014,561.271 771.014,561.271l37.347,675.188l-406.094,311.875l-265.315,255.3l64.406,-24.244c129.782,-74.93 34.313,6.187 119.61,-68.072c841.056,-732.223 -320.114,-1401.16 -320.97,-1401.65Z" style="fill:#9c72d0;"/><path d="M7173.79,1979.68l-268.179,-154.834l2607.88,-1513.6l275.048,158.805l-2614.75,1509.63Z" style="fill:url(#_Linear11);"/><path d="M6302.21,3953.81l-0.001,0.001l-201.134,-116.125l271.187,-153.097l198.128,114.388l-0.001,0c1.065,0.609 1591.4,911.474 131.579,1855.12c-0.393,0.254 -0.772,0.51 -1.138,0.771l741.141,427.898l-268.179,154.833l-741.172,-427.915c-1634.71,843.887 -3213.02,-74.451 -3214.47,-75.293l-0.001,0l-201.135,-116.125l268.18,-154.834l201.134,116.125l1.025,0.587c42.918,24.44 1427.42,800.447 2814.86,-0.587c1408.98,-813.474 0.943,-1625.21 0,-1625.75Z" style="fill:url(#_Linear12);"/><path d="M5229.49,1166.67l-268.18,-154.695l0,5341.63l268.18,154.95l0,-5341.89Z" style="fill:url(#_Linear13);"/><path d="M8313.55,3179.64l0.001,541.918l-318.623,183.957l50.443,-571.041l268.179,-154.834Zm-851.294,593.811l269.454,-155.57c0,0 35.141,-19.728 35.141,-88.862c0,-69.133 0,-165.148 0,-165.148l-304.595,-133.809l0,543.389Zm-533.224,-422.114l269.454,-155.569c0,0 35.141,-19.728 35.141,-88.862c0,-69.134 0,-318.51 0,-318.51l-304.595,-133.808l0,696.749Z" style="fill:url(#_Linear14);"/><path d="M6704.48,2560.3l0,541.917c0,0 -0.503,154.543 134.09,232.25c134.592,77.706 134.089,-77.417 134.089,-77.417l0,-77.417c0,0 -3.223,-156.694 134.09,-77.416c137.312,79.277 134.089,232.25 134.089,232.25l0,190.443c0,0 4.194,157.254 134.09,232.25c129.896,74.995 134.09,-77.417 134.09,-77.417l0,-233.722c0,0 1.123,-154.185 134.089,-77.417c132.966,76.768 134.09,232.25 134.09,232.25l0,52.539c0,0 1.279,155.572 134.089,232.25c132.81,76.678 134.09,-77.416 134.09,-77.416l0,-473.76l-1340.9,-774.167Z" style="fill:url(#_Linear15);"/><path d="M8313.55,3179.64l-1340.9,-774.166l-268.179,154.833l1340.9,774.167l268.179,-154.834Z" style="fill:url(#_Linear16);"/><path d="M6431.86,6118.91l741.931,428.354l0,-309.667l-741.501,-428.106l-0.43,309.419Z" style="fill:#aed9b0;"/><path d="M3017.02,5308.6l0,309.666l-268.18,-154.833l268.18,-154.833Z" style="fill:url(#_Linear17);"/><path d="M2748.84,5773.1l268.179,-154.833l-268.179,-154.833l0,309.666Z" style="fill:url(#_Linear18);"/><path d="M8203,3235.27l269.454,-155.569c0,0 35.141,-19.728 35.141,-88.862c0,-69.134 0,-318.51 0,-318.51l-304.595,-133.808l0,696.749Z" style="fill:#b3aad6;"/><path d="M1907.88,6172.36l269.454,-155.57c0,0 35.141,-19.728 35.141,-88.861c0,-69.134 0,-696.75 0,-696.75l-268.18,-154.834l-36.415,1096.02Zm-670.448,-541.917l269.454,-155.569c0,0 35.141,-19.728 35.141,-88.862c0,-69.134 0,-696.75 0,-696.75l-268.18,-154.833l-36.415,1096.01Z" style="fill:url(#_Linear19);"/><path d="M2748.84,4224.76l1005.67,-580.625l-1474.99,-851.583l-1273.85,735.458l938.627,541.917l1005.67,-580.625l268.18,154.833l-737.493,425.792l268.179,154.833Z" style="fill:url(#_Linear20);"/><path d="M3754.51,3644.14l0.001,1238.67l-1005.67,580.625l-0.001,309.666l-268.179,154.834l0,-1238.67l268.179,-154.833l0,-309.667l737.493,-425.792l0,-309.666l268.179,-154.834l0,309.667Z" style="fill:url(#_Linear21);"/><path d="M1944.3,4921.51l268.18,-154.833l0,-541.917l1005.67,-580.625l-268.18,-154.833l-1005.67,580.625l0,851.583Z" style="fill:#eab184;"/><path d="M3486.33,3798.97l-268.179,-154.833l0,-309.667l268.179,154.834l0,309.666Z" style="fill:url(#_Linear22);"/><path d="M3084.39,4650.66l267.852,-154.942l-268.179,-154.833l0.327,309.775Z" style="fill:url(#_Linear23);"/><path d="M2882.93,4611.85l268.179,-154.833l2078.39,1199.96l-268.18,154.834l-2078.39,-1199.96Z" style="fill:url(#_Linear24);"/><path d="M9393.08,2556.38l0,1006.42c0,0 -6.502,81.52 60.24,120.053c66.742,38.534 737.493,425.792 737.493,425.792c0,0 23.091,13.155 67.045,38.708c1.376,620.341 0,569.563 0,619.334c0,0 2.37,69.289 -72.898,112.745c-75.268,43.456 -364.788,210.611 -364.788,210.611l0,-457.742l-1114.72,-643.582l211.512,-1002.61l476.114,-429.723Z" style="fill:url(#_Linear25);"/><path d="M9856.45,4379.1l402.011,-231.396l0,619.334c0,0 3.549,67.903 -73.509,112.392c-77.058,44.49 -364.788,210.611 -364.788,210.611l36.286,-710.941Zm-581.654,403.984l269.454,-155.569c0,0 35.141,-19.728 35.141,-88.862c0,-69.134 0,-318.51 0,-318.51l-304.595,-133.809l0,696.75Zm-537.701,-78.192l269.454,-155.569c0,0 35.141,-19.728 35.141,-88.862c0,-69.134 0,-318.51 0,-318.51l-304.595,-133.808l0,696.749Z" style="fill:url(#_Linear26);"/><path d="M7488.53,4406.48l0,410.743c0,0 -7.804,126.668 355.714,336.545c69.002,39.839 1743.16,1006.42 1743.16,1006.42l0,-309.667l-2098.88,-1444.04Z" style="fill:#aed9b0;"/><path d="M7978.33,2444.18l0,541.916c0,0 -0.502,154.543 134.09,232.25c134.592,77.707 134.09,-77.416 134.09,-77.416l0,-77.417c0,0 -3.224,-156.694 134.089,-77.417c137.313,79.278 134.09,232.25 134.09,232.25l0,1238.67c0,0 4.193,157.254 134.089,232.25c129.897,74.995 134.09,-77.417 134.09,-77.417l0,-387.083c0,0 1.124,-154.185 134.09,-77.417c132.965,76.768 134.089,232.25 134.089,232.25l0,154.834c0,0 1.28,155.572 134.09,232.25c132.81,76.677 134.089,-77.417 134.089,-77.417l0,-154.833c0,0 -0.697,-155.236 134.09,-77.417c134.787,77.819 134.09,232.25 134.09,232.25l0,154.833c0,0 -3.592,152.76 134.089,232.25c137.681,79.491 134.09,-77.416 134.09,-77.416l0,-154.834c0,0 1.955,-3.11 0,-464.5c-133.216,-76.912 -804.538,-464.5 -804.538,-464.5c0,0 -134.089,-81.03 -134.089,-232.25c0,-151.22 0,-696.75 0,-696.75l-938.628,-541.916Z" style="fill:url(#_Linear27);"/><path d="M7039.7,2366.76l268.179,154.833l-1810.21,1045.13l-268.179,-154.833l1810.21,-1045.13Z" style="fill:url(#_Linear28);"/><path d="M7307.88,2831.26l-1877.25,1083.83l0,-309.666l1877.25,-1083.83l0,309.667Z" style="fill:url(#_Linear29);"/><path d="M6905.61,4379.6l-1609.08,-929l-268.179,154.834l1609.08,929l268.18,-154.834Z" style="fill:url(#_Linear30);"/><path d="M6905.61,4689.26l-268.18,-154.833l268.18,-154.834l0,309.667Z" style="fill:#381c1c;"/><path d="M6637.44,4839.68l268.18,-150.417l-268.18,-154.833l0,305.25Z" style="fill:#d96e6e;"/><path d="M5028.36,3915.1l1609.08,924.584l0,-305.25l-1609.08,-929l0,309.666Z" style="fill:url(#_Linear31);"/><path d="M5229.49,3411.89l268.179,154.833l-1877.26,1083.83l-268.179,-154.834l1877.26,-1083.83Z" style="fill:url(#_Linear32);"/><path d="M3352.24,4805.39l268.179,-154.833l-268.179,-154.834l0,309.667Z" style="fill:url(#_Linear33);"/><path d="M3620.42,4960.22l-268.179,-154.833l268.179,-154.833l0,309.666Z" style="fill:url(#_Linear34);"/><path d="M5497.67,3876.39l-1877.26,1083.83l0,-309.666l1877.26,-1083.83l0,309.667Z" style="fill:url(#_Linear35);"/><path d="M5229.49,3411.89l-2287.17,-1320.5l-268.179,154.833l2287.17,1320.5l268.18,-154.833Z" style="fill:url(#_Linear36);"/><path d="M5229.49,3721.56l-268.18,-154.834l268.18,-154.833l0,309.667Z" style="fill:#d66edb;"/><path d="M4961.32,3871.97l268.18,-150.416l-268.18,-154.834l0,305.25Z" style="fill:#aa40b0;"/><path d="M2674.14,2555.89l2287.17,1320.5l0,-309.667l-2287.17,-1320.5l0,309.667Z" style="fill:url(#_Linear37);"/><path d="M3754.51,3334.47l-268.179,-154.833l0,309.667l268.179,-154.834Z" style="fill:url(#_Linear38);"/><path d="M10324.9,779.722l-268.179,-154.833l0,309.667l268.179,-154.834Z" style="fill:url(#_Linear39);"/><path d="M9788.54,779.722l268.179,154.834l0,-309.667l-268.179,154.833Z" style="fill:url(#_Linear40);"/><path d="M2279.52,3566.72l402.269,-232.25l-402.269,-232.25l0,464.5Z" style="fill:url(#_Linear41);"/><path d="M1944.3,3760.26l335.224,-193.542l0,-464.5l-737.492,425.792l402.268,232.25Z" style="fill:url(#_Linear42);"/><path d="M7710.15,2289.35l-268.179,154.834l268.179,154.833l0,-309.667Z" style="fill:url(#_Linear43);"/><path d="M7441.97,2134.51l0,309.667l268.179,-154.834l-268.179,-154.833Z" style="fill:url(#_Linear44);"/><path d="M8916.96,2986.1l268.175,-154.831c0,0 467.862,-271.796 0,-541.917c-467.863,-270.12 -938.627,0 -938.627,0l-268.18,154.834l938.632,541.914Z" style="fill:url(#_Linear45);"/><path d="M9640.74,3187.56c4.142,-87.671 160.536,-122.273 146.25,-183.384l381.958,-411.517l0,315.504c0,0 -4.847,286.901 -447.453,542.439c0,0 -1609.08,929 -1609.08,929c0,0 -268.189,154.828 -201.134,193.542c268.152,154.818 268.179,309.667 268.179,309.667l-474.894,-345.154l24.144,-147.337l-85.609,-49.426l103.5,-59.756l5.288,-32.269l360.526,-178.933l1528.32,-882.376Z" style="fill:url(#_Linear46);"/><path d="M9520.36,1399.06l0,309.666l268.179,-154.833l-268.179,-154.833Z" style="fill:url(#_Linear47);"/><path d="M9788.54,1863.56l-268.179,-154.834l268.179,-154.833l0,309.667Z" style="fill:url(#_Linear48);"/><path d="M9721.5,3140.93c0,0 -1070.86,618.264 -1609.08,929c-538.211,310.736 0,619.333 0,619.333l1743.16,1006.42l-268.179,154.833c0,0 -938.151,-541.642 -1743.16,-1006.42c-805.014,-464.775 0,-929 0,-929l1609.08,-929c0,0 735.115,-427.164 0,-851.583c-735.115,-424.419 -1474.99,0 -1474.99,0l-268.179,154.833l-268.179,-154.833l1273.85,-735.458l1005.67,580.625c535.266,312.233 666.237,780.377 0,1161.25Z" style="fill:url(#_Linear49);"/><path d="M9587.41,6160.18l268.179,-154.834l-268.179,-154.833l0,309.667Z" style="fill:url(#_Linear50);"/><path d="M7173.79,6547.26l268.179,-154.833l-268.179,-154.834l0,309.667Z" style="fill:url(#_Linear51);"/><path d="M9855.59,5695.68l0,309.666l-268.179,-154.833l268.179,-154.833Z" style="fill:url(#_Linear52);"/><path d="M6637.44,4844.1l268.18,-154.833l-268.18,-154.833l0,309.666Z" style="fill:url(#_Linear53);"/><path d="M6905.61,4379.6l0,309.667l-268.18,-154.833l268.18,-154.834Z" style="fill:url(#_Linear54);"/><path d="M4961.32,3876.39l268.18,-154.833l-268.18,-154.834l0,309.667Z" style="fill:url(#_Linear55);"/><path d="M5229.49,3411.89l0,309.667l-268.18,-154.834l268.18,-154.833Z" style="fill:url(#_Linear56);"/><path d="M4961.32,6121.47l268.18,-154.833l-268.18,-154.833l0,309.666Z" style="fill:url(#_Linear57);"/><path d="M5229.49,5656.97l0,309.667l-268.18,-154.833l268.18,-154.834Z" style="fill:url(#_Linear58);"/><path d="M7441.97,6082.76l0,309.667l-268.179,-154.834l268.179,-154.833Z" style="fill:url(#_Linear59);"/><path d="M8514.69,2444.18l402.269,232.25c0,0 201.388,-115.978 0,-232.25c-201.389,-116.272 -402.269,0 -402.269,0Z" style="fill:url(#_Linear60);"/><path d="M2480.66,4069.93l268.179,154.833l0,309.667l-536.358,-309.667l268.179,-154.833Z" style="fill:url(#_Linear61);"/><path d="M2212.48,4224.76l536.358,309.667l-268.179,154.833l-268.179,-154.833l0,-309.667Z" style="fill:url(#_Linear62);"/><path d="M1944.3,4921.51l268.18,-154.833l0,-541.917l1005.67,-580.625l-268.18,-154.833l-1005.67,580.625l0,851.583Z" style="fill:url(#_Linear63);"/><path d="M2212.48,5076.35l0,-309.666l-268.18,154.833l268.18,154.833Z" style="fill:#fcdda9;"/><path d="M5501.5,4183.85l-3.825,2169.88l-268.179,154.834l0,-2477.88l272.004,153.168Zm-3.825,-926.791l0,-2245.08l-268.179,154.834l0,2245.08l268.179,-154.833Z" style="fill:url(#_Linear64);"/><path d="M5229.49,857.139l0,309.667l268.179,-154.834l-268.179,-154.833Z" style="fill:#a16d33;"/><path d="M4961.32,1011.97l268.18,154.834l0,-309.667l-268.18,154.833Z" style="fill:#805728;"/><path d="M2212.48,6160.18l0,929l268.179,154.833l0,-929l-268.179,-154.833Z" style="fill:url(#_Linear65);"/><path d="M2748.84,6160.18l-268.179,-154.834l0,309.667l268.179,-154.833Z" style="fill:#727ce2;"/><path d="M2212.48,6160.18l268.179,154.833l0,-309.667l-268.179,154.834Z" style="fill:#a1a8ee;"/><path d="M2748.84,6160.18l-268.179,154.833l0,929l268.179,-154.833l0,-929Z" style="fill:#fbbf9f;"/><path d="M1005.67,3528.01l938.627,541.917l0,851.583l268.18,154.833l0,-541.916l268.179,154.833l0,1238.67l-268.179,-154.833l0,-387.084l-268.18,-154.833l0,851.583c0,0 -0.285,154.668 -134.089,77.417c-133.804,-77.252 -134.09,-232.25 -134.09,-232.25l0,-696.75c0,0 -0.859,-155.327 -201.134,-270.959c-200.276,-115.627 -201.135,38.709 -201.135,38.709l0,541.916c0,0 1.157,155.501 -137.919,75.206c-139.075,-80.295 -137.91,-234.456 -137.91,-234.456l0,-696.75l7.65,-1156.83Z" style="fill:url(#_Linear66);"/><path d="M4022.69,3489.31l0,619.333l-268.179,154.833l0,-929l-268.179,-154.833l-268.179,154.833l-670.448,-387.083l0,-309.667" style="fill:url(#_Linear67);"/><path d="M7173.79,1979.68l-268.179,154.833l0,232.25" style="fill:none;"/><path d="M2748.84,4844.1l0,309.667l268.179,-154.833l-268.179,-154.834Z" style="fill:url(#_Linear68);"/><path d="M3019.27,4691.16l-270.433,152.937l268.18,154.834l2.253,-307.771Z" style="fill:url(#_Linear69);"/><path d="M9520.36,1708.72l0,-309.666l-268.179,154.833l268.179,154.833Z" style="fill:url(#_Linear70);"/><path d="M9386.27,1786.14l-134.089,-77.417l0,-154.833l268.179,154.833l-134.09,77.417Z" style="fill:url(#_Linear71);"/><path d="M1206.81,547.472l0,309.667l2212.48,1277.38l268.179,-154.833l-2480.66,-1432.21Z" style="fill:url(#_Linear72);"/><path d="M3955.64,2134.51l-402.268,232.25l402.268,232.25l0,-464.5Z" style="fill:url(#_Linear73);"/><path d="M4357.91,2366.76l-402.269,232.25l0,-464.5l402.269,232.25Z" style="fill:url(#_Linear74);"/><path d="M6235.17,2366.76l0,-464.5l-402.269,232.25l402.269,232.25Z" style="fill:url(#_Linear75);"/><path d="M5832.9,2599.01l0,-464.5l402.269,232.25l-402.269,232.25Z" style="fill:url(#_Linear76);"/><path d="M1273.85,3992.51l0,541.917l402.269,232.25l0,-541.917l-402.269,-232.25Z" style="fill:url(#_Linear77);"/><path d="M1273.85,4534.43l402.269,-232.25l0,464.5l-402.269,-232.25Z" style="fill:url(#_Linear78);"/><path d="M3084.06,4340.89l268.179,-154.833l0,309.666l-268.179,-154.833Zm-134.09,-851.583l0,309.666l268.18,-154.833l-268.18,-154.833Z" style="fill:url(#_Linear79);"/><path d="M3218.15,3334.47l268.179,154.834l0,-309.667l-268.179,154.833Z" style="fill:url(#_Linear80);"/><path d="M2748.84,6160.18l-268.179,-154.834l0,309.667l268.179,-154.833Z" style="fill:url(#_Linear81);"/><path d="M2212.48,6160.18l268.179,154.833l0,-309.667l-268.179,154.834Z" style="fill:url(#_Linear82);"/><path d="M5497.67,1011.97l-268.179,-154.833l0,309.667l268.179,-154.834Z" style="fill:url(#_Linear83);"/><path d="M4961.32,1011.97l268.18,154.834l0,-309.667l-268.18,154.833Z" style="fill:url(#_Linear84);"/><path d="M2882.93,4921.51l0,-309.667l2078.39,1199.96l0,309.666l-2078.39,-1199.96Z" style="fill:url(#_Linear85);"/><g id="Layer-1" serif:id="Layer 1"></g><defs><linearGradient id="_Linear1" x1="0" y1="0" x2="1" y2="0" gradientUnits="userSpaceOnUse" gradientTransform="matrix(7406.62,-1152.38,1152.38,7406.62,2113.74,2792.56)"><stop offset="0" style="stop-color:#fce7a9;stop-opacity:1"/><stop offset="0.26" style="stop-color:#ddbd80;stop-opacity:1"/><stop offset="0.48" style="stop-color:#faca94;stop-opacity:1"/><stop offset="0.78" style="stop-color:#e9a591;stop-opacity:1"/><stop offset="1" style="stop-color:#f1d686;stop-opacity:1"/></linearGradient><linearGradient id="_Linear2" x1="0" y1="0" x2="1" y2="0" gradientUnits="userSpaceOnUse" gradientTransform="matrix(871.582,-116.125,116.125,871.582,9855.59,1050.68)"><stop offset="0" style="stop-color:#d9c480;stop-opacity:1"/><stop offset="1" style="stop-color:#e78958;stop-opacity:1"/></linearGradient><linearGradient id="_Linear3" x1="0" y1="0" x2="1" y2="0" gradientUnits="userSpaceOnUse" gradientTransform="matrix(2279.52,1316.08,-1316.08,2279.52,7777.2,779.722)"><stop offset="0" style="stop-color:#b2d2b4;stop-opacity:1"/><stop offset="0.56" style="stop-color:#9cdab4;stop-opacity:1"/><stop offset="1" style="stop-color:#d8c876;stop-opacity:1"/></linearGradient><linearGradient id="_Linear4" x1="0" y1="0" x2="1" y2="0" gradientUnits="userSpaceOnUse" gradientTransform="matrix(1944.3,425.792,-425.792,1944.3,7911.29,2173.22)"><stop offset="0" style="stop-color:#aed9b0;stop-opacity:1"/><stop offset="0.43" style="stop-color:#93cbae;stop-opacity:1"/><stop offset="1" style="stop-color:#4f7e86;stop-opacity:1"/></linearGradient><linearGradient id="_Linear5" x1="0" y1="0" x2="1" y2="0" gradientUnits="userSpaceOnUse" gradientTransform="matrix(3553.37,-5535.29,5535.29,3553.37,4223.82,6237.6)"><stop offset="0" style="stop-color:#fbbf9f;stop-opacity:1"/><stop offset="0.3" style="stop-color:#e698ce;stop-opacity:1"/><stop offset="0.79" style="stop-color:#e19871;stop-opacity:1"/><stop offset="1" style="stop-color:#95b9a5;stop-opacity:1"/></linearGradient><linearGradient id="_Linear6" x1="0" y1="0" x2="1" y2="0" gradientUnits="userSpaceOnUse" gradientTransform="matrix(3.01743e-13,4927.83,-4927.83,3.01743e-13,5564.72,1900.1)"><stop offset="0" style="stop-color:#aed9b0;stop-opacity:1"/><stop offset="0.33" style="stop-color:#87d68a;stop-opacity:1"/><stop offset="0.66" style="stop-color:#b6e7e0;stop-opacity:1"/><stop offset="1" style="stop-color:#9b9dbe;stop-opacity:1"/></linearGradient><linearGradient id="_Linear7" x1="0" y1="0" x2="1" y2="0" gradientUnits="userSpaceOnUse" gradientTransform="matrix(938.627,-309.667,309.667,938.627,4022.69,3798.97)"><stop offset="0" style="stop-color:#fbbf9f;stop-opacity:1"/><stop offset="1" style="stop-color:#e28350;stop-opacity:1"/></linearGradient><linearGradient id="_Linear8" x1="0" y1="0" x2="1" y2="0" gradientUnits="userSpaceOnUse" gradientTransform="matrix(-2413.61,1548.33,-1548.33,-2413.61,9721.5,508.764)"><stop offset="0" style="stop-color:#dbbb7a;stop-opacity:0.913725"/><stop offset="1" style="stop-color:#d48a98;stop-opacity:0.913725"/></linearGradient><linearGradient id="_Linear9" x1="0" y1="0" x2="1" y2="0" gradientUnits="userSpaceOnUse" gradientTransform="matrix(226.535,-178.877,178.877,226.535,6972.66,2173.22)"><stop offset="0" style="stop-color:#8021f3;stop-opacity:1"/><stop offset="1" style="stop-color:#6cc9c5;stop-opacity:1"/></linearGradient><linearGradient id="_Linear10" x1="0" y1="0" x2="1" y2="0" gradientUnits="userSpaceOnUse" gradientTransform="matrix(268.179,48.334,-48.334,268.179,6905.61,1931.35)"><stop offset="0" style="stop-color:#a66fe8;stop-opacity:1"/><stop offset="1" style="stop-color:#6cc9c5;stop-opacity:1"/></linearGradient><linearGradient id="_Linear11" x1="0" y1="0" x2="1" y2="0" gradientUnits="userSpaceOnUse" gradientTransform="matrix(-2413.61,1625.75,-1625.75,-2413.61,9520.36,392.639)"><stop offset="0" style="stop-color:#fce7a9;stop-opacity:0.870588"/><stop offset="1" style="stop-color:#cfd787;stop-opacity:1"/></linearGradient><linearGradient id="_Linear12" x1="0" y1="0" x2="1" y2="0" gradientUnits="userSpaceOnUse" gradientTransform="matrix(4089.73,-1277.37,1277.37,4089.73,3151.11,5618.26)"><stop offset="0" style="stop-color:#fce7a9;stop-opacity:1"/><stop offset="0.42" style="stop-color:#fdd96f;stop-opacity:1"/><stop offset="0.73" style="stop-color:#e8e480;stop-opacity:1"/><stop offset="1" style="stop-color:#fcbaa9;stop-opacity:1"/></linearGradient><linearGradient id="_Linear13" x1="0" y1="0" x2="1" y2="0" gradientUnits="userSpaceOnUse" gradientTransform="matrix(3.26572e-13,5333.33,-5333.33,3.26572e-13,5095.4,1111.11)"><stop offset="0" style="stop-color:#b7d3dd;stop-opacity:0.784314"/><stop offset="0.25" style="stop-color:#98d7b7;stop-opacity:0.933333"/><stop offset="0.52" style="stop-color:#8aabda;stop-opacity:1"/><stop offset="1" style="stop-color:#b7dadd;stop-opacity:0.768627"/></linearGradient><linearGradient id="_Linear14" x1="0" y1="0" x2="1" y2="0" gradientUnits="userSpaceOnUse" gradientTransform="matrix(536.358,-1393.5,1393.5,536.358,7576.06,3760.26)"><stop offset="0" style="stop-color:#fbbf9f;stop-opacity:1"/><stop offset="1" style="stop-color:#621fb5;stop-opacity:1"/></linearGradient><linearGradient id="_Linear15" x1="0" y1="0" x2="1" y2="0" gradientUnits="userSpaceOnUse" gradientTransform="matrix(-67.0436,735.459,-735.459,-67.0436,7374.93,2947.39)"><stop offset="0" style="stop-color:#aed9b0;stop-opacity:1"/><stop offset="1" style="stop-color:#7bbc90;stop-opacity:1"/></linearGradient><linearGradient id="_Linear16" x1="0" y1="0" x2="1" y2="0" gradientUnits="userSpaceOnUse" gradientTransform="matrix(938.627,464.5,-464.5,938.627,7240.84,2792.56)"><stop offset="0" style="stop-color:#fce7a9;stop-opacity:1"/><stop offset="1" style="stop-color:#cce366;stop-opacity:1"/></linearGradient><linearGradient id="_Linear17" x1="0" y1="0" x2="1" y2="0" gradientUnits="userSpaceOnUse" gradientTransform="matrix(-274.141,-107.581,107.581,-274.141,2979.08,5518.94)"><stop offset="0" style="stop-color:#a475e0;stop-opacity:1"/><stop offset="1" style="stop-color:#00b5ff;stop-opacity:1"/></linearGradient><linearGradient id="_Linear18" x1="0" y1="0" x2="1" y2="0" gradientUnits="userSpaceOnUse" gradientTransform="matrix(-158.931,-169.175,169.175,-158.931,2882.93,5618.26)"><stop offset="0" style="stop-color:#bfb68c;stop-opacity:1"/><stop offset="1" style="stop-color:#00b5ff;stop-opacity:1"/></linearGradient><linearGradient id="_Linear19" x1="0" y1="0" x2="1" y2="0" gradientUnits="userSpaceOnUse" gradientTransform="matrix(402.269,-619.333,619.333,402.269,1474.99,5734.39)"><stop offset="0" style="stop-color:#fbbf9f;stop-opacity:1"/><stop offset="1" style="stop-color:#c09ddc;stop-opacity:1"/></linearGradient><linearGradient id="_Linear20" x1="0" y1="0" x2="1" y2="0" gradientUnits="userSpaceOnUse" gradientTransform="matrix(-2748.84,-116.125,116.125,-2748.84,3754.51,3644.14)"><stop offset="0" style="stop-color:#fce7a9;stop-opacity:1"/><stop offset="0.26" style="stop-color:#f5dca1;stop-opacity:1"/><stop offset="0.47" style="stop-color:#dbb685;stop-opacity:1"/><stop offset="0.71" style="stop-color:#cfd1a5;stop-opacity:1"/><stop offset="1" style="stop-color:#ccd9ae;stop-opacity:1"/></linearGradient><linearGradient id="_Linear21" x1="0" y1="0" x2="1" y2="0" gradientUnits="userSpaceOnUse" gradientTransform="matrix(-1281.5,2589.04,-2589.04,-1281.5,3762.16,3338.89)"><stop offset="0" style="stop-color:#fbbf9f;stop-opacity:1"/><stop offset="0.23" style="stop-color:#f7be93;stop-opacity:1"/><stop offset="0.47" style="stop-color:#eabc72;stop-opacity:1"/><stop offset="1" style="stop-color:#e4a685;stop-opacity:1"/></linearGradient><linearGradient id="_Linear22" x1="0" y1="0" x2="1" y2="0" gradientUnits="userSpaceOnUse" gradientTransform="matrix(240.594,-170.76,170.76,240.594,3245.74,3660.07)"><stop offset="0" style="stop-color:#7ed0ab;stop-opacity:1"/><stop offset="1" style="stop-color:#76b670;stop-opacity:1"/></linearGradient><linearGradient id="_Linear23" x1="0" y1="0" x2="1" y2="0" gradientUnits="userSpaceOnUse" gradientTransform="matrix(321.242,201.614,-201.614,321.242,2656.97,4664.88)"><stop offset="0" style="stop-color:#00b5ff;stop-opacity:1"/><stop offset="1" style="stop-color:#bfb68c;stop-opacity:1"/></linearGradient><linearGradient id="_Linear24" x1="0" y1="0" x2="1" y2="0" gradientUnits="userSpaceOnUse" gradientTransform="matrix(2076.14,1161.2,-1161.2,2076.14,3019.27,4495.78)"><stop offset="0" style="stop-color:#fce7a9;stop-opacity:0.768627"/><stop offset="1" style="stop-color:#e9ceab;stop-opacity:1"/></linearGradient><linearGradient id="_Linear25" x1="0" y1="0" x2="1" y2="0" gradientUnits="userSpaceOnUse" gradientTransform="matrix(-1072.72,-1974.8,1974.8,-1072.72,10056.7,4767.35)"><stop offset="0" style="stop-color:#b286c0;stop-opacity:1"/><stop offset="0.15" style="stop-color:#e9ceb1;stop-opacity:1"/><stop offset="0.34" style="stop-color:#f8e1ad;stop-opacity:1"/><stop offset="0.49" style="stop-color:#e5c8bc;stop-opacity:1"/><stop offset="0.68" style="stop-color:#b98ddf;stop-opacity:1"/><stop offset="0.86" style="stop-color:#dbb2a9;stop-opacity:1"/><stop offset="1" style="stop-color:#ebc390;stop-opacity:1"/></linearGradient><linearGradient id="_Linear26" x1="0" y1="0" x2="1" y2="0" gradientUnits="userSpaceOnUse" gradientTransform="matrix(268.179,-1006.42,1006.42,268.179,9520.36,4650.56)"><stop offset="0" style="stop-color:#fbbf9f;stop-opacity:1"/><stop offset="1" style="stop-color:#e685cb;stop-opacity:1"/></linearGradient><linearGradient id="_Linear27" x1="0" y1="0" x2="1" y2="0" gradientUnits="userSpaceOnUse" gradientTransform="matrix(-755.481,1886.32,-1886.32,-755.481,9654.45,2715.14)"><stop offset="0" style="stop-color:#bbc8bb;stop-opacity:1"/><stop offset="0.64" style="stop-color:#6bd3b3;stop-opacity:1"/><stop offset="1" style="stop-color:#7bbb8f;stop-opacity:1"/></linearGradient><linearGradient id="_Linear28" x1="0" y1="0" x2="1" y2="0" gradientUnits="userSpaceOnUse" gradientTransform="matrix(1840.46,-1027.66,1027.66,1840.46,5333.33,3471.84)"><stop offset="0" style="stop-color:#fcd4a9;stop-opacity:1"/><stop offset="1" style="stop-color:#dbe191;stop-opacity:0.878431"/></linearGradient><linearGradient id="_Linear29" x1="0" y1="0" x2="1" y2="0" gradientUnits="userSpaceOnUse" gradientTransform="matrix(1877.25,-1083.83,1083.83,1877.25,5430.63,3682.85)"><stop offset="0" style="stop-color:#fb9fa7;stop-opacity:0.890196"/><stop offset="1" style="stop-color:#deb95d;stop-opacity:0.890196"/></linearGradient><linearGradient id="_Linear30" x1="0" y1="0" x2="1" y2="0" gradientUnits="userSpaceOnUse" gradientTransform="matrix(1240.55,793.648,-793.648,1240.55,5530.98,3663.37)"><stop offset="0" style="stop-color:#e7e99e;stop-opacity:1"/><stop offset="1" style="stop-color:#dda47d;stop-opacity:0.858824"/></linearGradient><linearGradient id="_Linear31" x1="0" y1="0" x2="1" y2="0" gradientUnits="userSpaceOnUse" gradientTransform="matrix(1609.08,851.583,-851.583,1609.08,5028.36,3837.68)"><stop offset="0" style="stop-color:#b2d2b4;stop-opacity:1"/><stop offset="1" style="stop-color:#b6cd90;stop-opacity:0.764706"/></linearGradient><linearGradient id="_Linear32" x1="0" y1="0" x2="1" y2="0" gradientUnits="userSpaceOnUse" gradientTransform="matrix(1917.5,-935.642,935.642,1917.5,3513.13,4433.78)"><stop offset="0" style="stop-color:#fce7a9;stop-opacity:0.894118"/><stop offset="1" style="stop-color:#e8a46a;stop-opacity:1"/></linearGradient><linearGradient id="_Linear33" x1="0" y1="0" x2="1" y2="0" gradientUnits="userSpaceOnUse" gradientTransform="matrix(268.179,43.6605,-43.6605,268.179,3352.24,4606.9)"><stop offset="0" style="stop-color:#df97d8;stop-opacity:1"/><stop offset="1" style="stop-color:#adff00;stop-opacity:1"/></linearGradient><linearGradient id="_Linear34" x1="0" y1="0" x2="1" y2="0" gradientUnits="userSpaceOnUse" gradientTransform="matrix(245.255,-225.276,225.276,245.255,3406.65,4836.8)"><stop offset="0" style="stop-color:#b18aad;stop-opacity:1"/><stop offset="1" style="stop-color:#05ff00;stop-opacity:1"/></linearGradient><linearGradient id="_Linear35" x1="0" y1="0" x2="1" y2="0" gradientUnits="userSpaceOnUse" gradientTransform="matrix(1810.21,-1045.12,1045.12,1810.21,3419.28,4534.43)"><stop offset="0" style="stop-color:#fbd19f;stop-opacity:0.921569"/><stop offset="0.47" style="stop-color:#f4baad;stop-opacity:0.921569"/><stop offset="1" style="stop-color:#e07dd1;stop-opacity:0.921569"/></linearGradient><linearGradient id="_Linear36" x1="0" y1="0" x2="1" y2="0" gradientUnits="userSpaceOnUse" gradientTransform="matrix(67.0448,1974.12,-1974.12,67.0448,3955.64,1824.85)"><stop offset="0" style="stop-color:#fce7a9;stop-opacity:0.717647"/><stop offset="1" style="stop-color:#e28467;stop-opacity:1"/></linearGradient><linearGradient id="_Linear37" x1="0" y1="0" x2="1" y2="0" gradientUnits="userSpaceOnUse" gradientTransform="matrix(1951.95,1582.62,-1582.62,1951.95,2674.14,2255.06)"><stop offset="0" style="stop-color:#aed9b0;stop-opacity:0.917647"/><stop offset="0.44" style="stop-color:#96cfad;stop-opacity:0.941176"/><stop offset="1" style="stop-color:#5eb9a5;stop-opacity:1"/></linearGradient><linearGradient id="_Linear38" x1="0" y1="0" x2="1" y2="0" gradientUnits="userSpaceOnUse" gradientTransform="matrix(-67.0448,270.958,-270.958,-67.0448,3553.37,3218.35)"><stop offset="0" style="stop-color:#b25bd4;stop-opacity:1"/><stop offset="1" style="stop-color:#6cc9c5;stop-opacity:1"/></linearGradient><linearGradient id="_Linear39" x1="0" y1="0" x2="1" y2="0" gradientUnits="userSpaceOnUse" gradientTransform="matrix(-67.0448,270.958,-270.958,-67.0448,10123.8,663.597)"><stop offset="0" style="stop-color:#b25bd4;stop-opacity:1"/><stop offset="1" style="stop-color:#6cc9c5;stop-opacity:1"/></linearGradient><linearGradient id="_Linear40" x1="0" y1="0" x2="1" y2="0" gradientUnits="userSpaceOnUse" gradientTransform="matrix(130.265,311.875,-311.875,130.265,9926.46,622.681)"><stop offset="0" style="stop-color:#97abd6;stop-opacity:1"/><stop offset="1" style="stop-color:#6cc9c5;stop-opacity:1"/></linearGradient><linearGradient id="_Linear41" x1="0" y1="0" x2="1" y2="0" gradientUnits="userSpaceOnUse" gradientTransform="matrix(-134.09,387.083,-387.083,-134.09,2480.66,3218.35)"><stop offset="0" style="stop-color:#727ce2;stop-opacity:1"/><stop offset="1" style="stop-color:#ff0018;stop-opacity:1"/></linearGradient><linearGradient id="_Linear42" x1="0" y1="0" x2="1" y2="0" gradientUnits="userSpaceOnUse" gradientTransform="matrix(269.864,419.495,-419.495,269.864,2139.14,3183.27)"><stop offset="0" style="stop-color:#a1a8ee;stop-opacity:1"/><stop offset="1" style="stop-color:#ff0018;stop-opacity:1"/></linearGradient><linearGradient id="_Linear43" x1="0" y1="0" x2="1" y2="0" gradientUnits="userSpaceOnUse" gradientTransform="matrix(402.269,-464.5,464.5,402.269,7509.02,2637.72)"><stop offset="0" style="stop-color:#8021f3;stop-opacity:1"/><stop offset="1" style="stop-color:#ff006f;stop-opacity:1"/></linearGradient><linearGradient id="_Linear44" x1="0" y1="0" x2="1" y2="0" gradientUnits="userSpaceOnUse" gradientTransform="matrix(775.299,-60.5359,60.5359,775.299,7307.88,2289.35)"><stop offset="0" style="stop-color:#a66fe8;stop-opacity:1"/><stop offset="1" style="stop-color:#ff006f;stop-opacity:1"/></linearGradient><linearGradient id="_Linear45" x1="0" y1="0" x2="1" y2="0" gradientUnits="userSpaceOnUse" gradientTransform="matrix(558.794,-606.38,606.38,558.794,8380.6,2986.1)"><stop offset="0" style="stop-color:#f4cb55;stop-opacity:1"/><stop offset="1" style="stop-color:#f5d9a3;stop-opacity:1"/></linearGradient><linearGradient id="_Linear46" x1="0" y1="0" x2="1" y2="0" gradientUnits="userSpaceOnUse" gradientTransform="matrix(-2346.57,1664.46,-1664.46,-2346.57,10190.8,2869.97)"><stop offset="0" style="stop-color:#fbbf9f;stop-opacity:1"/><stop offset="0.44" style="stop-color:#cf9cd2;stop-opacity:1"/><stop offset="1" style="stop-color:#e178a0;stop-opacity:1"/></linearGradient><linearGradient id="_Linear47" x1="0" y1="0" x2="1" y2="0" gradientUnits="userSpaceOnUse" gradientTransform="matrix(402.269,-154.833,154.833,402.269,9453.32,1592.6)"><stop offset="0" style="stop-color:#5da099;stop-opacity:1"/><stop offset="1" style="stop-color:#ff006f;stop-opacity:1"/></linearGradient><linearGradient id="_Linear48" x1="0" y1="0" x2="1" y2="0" gradientUnits="userSpaceOnUse" gradientTransform="matrix(171.437,-210.687,210.687,171.437,9550.06,1725.87)"><stop offset="0" style="stop-color:#0b9c85;stop-opacity:1"/><stop offset="1" style="stop-color:#ff006f;stop-opacity:1"/></linearGradient><linearGradient id="_Linear49" x1="0" y1="0" x2="1" y2="0" gradientUnits="userSpaceOnUse" gradientTransform="matrix(-402.269,4180.5,-4180.5,-402.269,8782.87,1747.43)"><stop offset="0" style="stop-color:#f6d496;stop-opacity:1"/><stop offset="0.33" style="stop-color:#fdde84;stop-opacity:1"/><stop offset="0.61" style="stop-color:#ecb976;stop-opacity:1"/><stop offset="1" style="stop-color:#dce3ae;stop-opacity:1"/></linearGradient><linearGradient id="_Linear50" x1="0" y1="0" x2="1" y2="0" gradientUnits="userSpaceOnUse" gradientTransform="matrix(-268.179,-232.25,232.25,-268.179,9721.5,6082.76)"><stop offset="0" style="stop-color:#865ec7;stop-opacity:1"/><stop offset="1" style="stop-color:#ff006f;stop-opacity:1"/></linearGradient><linearGradient id="_Linear51" x1="0" y1="0" x2="1" y2="0" gradientUnits="userSpaceOnUse" gradientTransform="matrix(-268.179,-232.25,232.25,-268.179,7307.88,6469.85)"><stop offset="0" style="stop-color:#865ec7;stop-opacity:1"/><stop offset="1" style="stop-color:#6cc9c5;stop-opacity:1"/></linearGradient><linearGradient id="_Linear52" x1="0" y1="0" x2="1" y2="0" gradientUnits="userSpaceOnUse" gradientTransform="matrix(-417.394,-146.101,146.101,-417.394,9922.63,5889.22)"><stop offset="0" style="stop-color:#a384cb;stop-opacity:1"/><stop offset="1" style="stop-color:#ff006f;stop-opacity:1"/></linearGradient><linearGradient id="_Linear53" x1="0" y1="0" x2="1" y2="0" gradientUnits="userSpaceOnUse" gradientTransform="matrix(-268.179,-232.25,232.25,-268.179,6771.52,4766.68)"><stop offset="0" style="stop-color:#865ec7;stop-opacity:1"/><stop offset="1" style="stop-color:#ff6100;stop-opacity:1"/></linearGradient><linearGradient id="_Linear54" x1="0" y1="0" x2="1" y2="0" gradientUnits="userSpaceOnUse" gradientTransform="matrix(-417.394,-146.101,146.101,-417.394,6972.66,4573.14)"><stop offset="0" style="stop-color:#a384cb;stop-opacity:1"/><stop offset="1" style="stop-color:#ff4a00;stop-opacity:1"/></linearGradient><linearGradient id="_Linear55" x1="0" y1="0" x2="1" y2="0" gradientUnits="userSpaceOnUse" gradientTransform="matrix(-167.597,-290.321,290.321,-167.597,5028.36,3837.68)"><stop offset="0" style="stop-color:#865ec7;stop-opacity:1"/><stop offset="1" style="stop-color:#05ff00;stop-opacity:1"/></linearGradient><linearGradient id="_Linear56" x1="0" y1="0" x2="1" y2="0" gradientUnits="userSpaceOnUse" gradientTransform="matrix(-393.607,-136.784,136.784,-393.607,5276.58,3593.91)"><stop offset="0" style="stop-color:#a384cb;stop-opacity:1"/><stop offset="1" style="stop-color:#05ff00;stop-opacity:1"/></linearGradient><linearGradient id="_Linear57" x1="0" y1="0" x2="1" y2="0" gradientUnits="userSpaceOnUse" gradientTransform="matrix(-167.597,-290.321,290.321,-167.597,5028.36,6082.76)"><stop offset="0" style="stop-color:#865ec7;stop-opacity:1"/><stop offset="1" style="stop-color:#05ff00;stop-opacity:1"/></linearGradient><linearGradient id="_Linear58" x1="0" y1="0" x2="1" y2="0" gradientUnits="userSpaceOnUse" gradientTransform="matrix(-393.607,-136.784,136.784,-393.607,5276.58,5838.99)"><stop offset="0" style="stop-color:#a384cb;stop-opacity:1"/><stop offset="1" style="stop-color:#05ff00;stop-opacity:1"/></linearGradient><linearGradient id="_Linear59" x1="0" y1="0" x2="1" y2="0" gradientUnits="userSpaceOnUse" gradientTransform="matrix(-417.394,-146.101,146.101,-417.394,7509.02,6276.31)"><stop offset="0" style="stop-color:#a384cb;stop-opacity:1"/><stop offset="1" style="stop-color:#6cc9c5;stop-opacity:1"/></linearGradient><linearGradient id="_Linear60" x1="0" y1="0" x2="1" y2="0" gradientUnits="userSpaceOnUse" gradientTransform="matrix(-36.0056,327.587,-327.587,-36.0056,8721.71,2447.58)"><stop offset="0" style="stop-color:#bf9bec;stop-opacity:1"/><stop offset="1" style="stop-color:#00fdff;stop-opacity:1"/></linearGradient><linearGradient id="_Linear61" x1="0" y1="0" x2="1" y2="0" gradientUnits="userSpaceOnUse" gradientTransform="matrix(489.355,282.529,-282.529,489.355,2279.52,4108.64)"><stop offset="0" style="stop-color:#00b5ff;stop-opacity:1"/><stop offset="0.46" style="stop-color:#a4d1c0;stop-opacity:1"/><stop offset="1" style="stop-color:#d3d9ae;stop-opacity:1"/></linearGradient><linearGradient id="_Linear62" x1="0" y1="0" x2="1" y2="0" gradientUnits="userSpaceOnUse" gradientTransform="matrix(-268.179,-464.5,464.5,-268.179,2413.61,4495.72)"><stop offset="0" style="stop-color:#fce7a9;stop-opacity:1"/><stop offset="1" style="stop-color:#00b5ff;stop-opacity:1"/></linearGradient><linearGradient id="_Linear63" x1="0" y1="0" x2="1" y2="0" gradientUnits="userSpaceOnUse" gradientTransform="matrix(-1173.28,1258.02,-1258.02,-1173.28,3117.58,3586.08)"><stop offset="0" style="stop-color:#fba49f;stop-opacity:1"/><stop offset="0.43" style="stop-color:#eabf6d;stop-opacity:1"/><stop offset="1" style="stop-color:#eab184;stop-opacity:1"/></linearGradient><linearGradient id="_Linear64" x1="0" y1="0" x2="1" y2="0" gradientUnits="userSpaceOnUse" gradientTransform="matrix(3.19091e-13,5211.15,-5211.15,3.19091e-13,5365.5,1128.1)"><stop offset="0" style="stop-color:#fbd19f;stop-opacity:0.584314"/><stop offset="0.43" style="stop-color:#e99c85;stop-opacity:1"/><stop offset="0.72" style="stop-color:#e3ae7d;stop-opacity:1"/><stop offset="1" style="stop-color:#dcc572;stop-opacity:0.764706"/></linearGradient><linearGradient id="_Linear65" x1="0" y1="0" x2="1" y2="0" gradientUnits="userSpaceOnUse" gradientTransform="matrix(-239.422,757.564,-757.564,-239.422,2451.9,6331.62)"><stop offset="0" style="stop-color:#91d2b1;stop-opacity:1"/><stop offset="1" style="stop-color:#979ac8;stop-opacity:1"/></linearGradient><linearGradient id="_Linear66" x1="0" y1="0" x2="1" y2="0" gradientUnits="userSpaceOnUse" gradientTransform="matrix(-871.582,1354.79,-1354.79,-871.582,1743.16,4495.72)"><stop offset="0" style="stop-color:#aed9b0;stop-opacity:1"/><stop offset="0.47" style="stop-color:#76d4b0;stop-opacity:1"/><stop offset="1" style="stop-color:#7eb080;stop-opacity:1"/></linearGradient><linearGradient id="_Linear67" x1="0" y1="0" x2="1" y2="0" gradientUnits="userSpaceOnUse" gradientTransform="matrix(-1202.98,-1159.04,1159.04,-1202.98,3951.82,4222.56)"><stop offset="0" style="stop-color:#aed9b0;stop-opacity:1"/><stop offset="1" style="stop-color:#7fcd99;stop-opacity:1"/></linearGradient><linearGradient id="_Linear68" x1="0" y1="0" x2="1" y2="0" gradientUnits="userSpaceOnUse" gradientTransform="matrix(321.242,201.614,-201.614,321.242,2656.97,4664.88)"><stop offset="0" style="stop-color:#00b5ff;stop-opacity:1"/><stop offset="1" style="stop-color:#bfb68c;stop-opacity:1"/></linearGradient><linearGradient id="_Linear69" x1="0" y1="0" x2="1" y2="0" gradientUnits="userSpaceOnUse" gradientTransform="matrix(469.314,658.042,-658.042,469.314,2480.66,4379.6)"><stop offset="0" style="stop-color:#004fff;stop-opacity:1"/><stop offset="1" style="stop-color:#bfb68c;stop-opacity:1"/></linearGradient><linearGradient id="_Linear70" x1="0" y1="0" x2="1" y2="0" gradientUnits="userSpaceOnUse" gradientTransform="matrix(-268.179,-77.4167,77.4167,-268.179,9520.36,1553.89)"><stop offset="0" style="stop-color:#6c4daf;stop-opacity:1"/><stop offset="1" style="stop-color:#6cc9c5;stop-opacity:1"/></linearGradient><linearGradient id="_Linear71" x1="0" y1="0" x2="1" y2="0" gradientUnits="userSpaceOnUse" gradientTransform="matrix(-201.134,-193.542,193.542,-201.134,9453.32,1747.43)"><stop offset="0" style="stop-color:#a68be2;stop-opacity:1"/><stop offset="1" style="stop-color:#6cc9c5;stop-opacity:1"/></linearGradient><linearGradient id="_Linear72" x1="0" y1="0" x2="1" y2="0" gradientUnits="userSpaceOnUse" gradientTransform="matrix(2145.43,1393.5,-1393.5,2145.43,1206.81,702.306)"><stop offset="0" style="stop-color:#aed9b0;stop-opacity:1"/><stop offset="1" style="stop-color:#9ed9c5;stop-opacity:1"/></linearGradient><linearGradient id="_Linear73" x1="0" y1="0" x2="1" y2="0" gradientUnits="userSpaceOnUse" gradientTransform="matrix(158.409,682.709,-682.709,158.409,3864.28,2187.26)"><stop offset="0" style="stop-color:#a1a8ee;stop-opacity:1"/><stop offset="1" style="stop-color:#ff006f;stop-opacity:1"/></linearGradient><linearGradient id="_Linear74" x1="0" y1="0" x2="1" y2="0" gradientUnits="userSpaceOnUse" gradientTransform="matrix(-67.0448,425.792,-425.792,-67.0448,4089.73,2211.93)"><stop offset="0" style="stop-color:#727ce2;stop-opacity:1"/><stop offset="1" style="stop-color:#ff00e6;stop-opacity:1"/></linearGradient><linearGradient id="_Linear75" x1="0" y1="0" x2="1" y2="0" gradientUnits="userSpaceOnUse" gradientTransform="matrix(-469.314,-38.7083,38.7083,-469.314,6235.17,2134.51)"><stop offset="0" style="stop-color:#6f48c5;stop-opacity:1"/><stop offset="1" style="stop-color:#ff006f;stop-opacity:1"/></linearGradient><linearGradient id="_Linear76" x1="0" y1="0" x2="1" y2="0" gradientUnits="userSpaceOnUse" gradientTransform="matrix(-335.224,-348.375,348.375,-335.224,6034.03,2482.89)"><stop offset="0" style="stop-color:#a1a8ee;stop-opacity:1"/><stop offset="1" style="stop-color:#ff006f;stop-opacity:1"/></linearGradient><linearGradient id="_Linear77" x1="0" y1="0" x2="1" y2="0" gradientUnits="userSpaceOnUse" gradientTransform="matrix(536.358,0,0,536.358,1273.85,4069.93)"><stop offset="0" style="stop-color:#a1a8ee;stop-opacity:1"/><stop offset="1" style="stop-color:#ff0300;stop-opacity:1"/></linearGradient><linearGradient id="_Linear78" x1="0" y1="0" x2="1" y2="0" gradientUnits="userSpaceOnUse" gradientTransform="matrix(332.633,-386.574,386.574,332.633,1375.27,4670.4)"><stop offset="0" style="stop-color:#639ad2;stop-opacity:1"/><stop offset="1" style="stop-color:#ff0018;stop-opacity:1"/></linearGradient><linearGradient id="_Linear79" x1="0" y1="0" x2="1" y2="0" gradientUnits="userSpaceOnUse" gradientTransform="matrix(-33.5221,1176.19,-1176.19,-33.5221,3151.11,3338.89)"><stop offset="0" style="stop-color:#727ce2;stop-opacity:1"/><stop offset="0.32" style="stop-color:#d277e2;stop-opacity:1"/><stop offset="0.66" style="stop-color:#b974e2;stop-opacity:1"/><stop offset="1" style="stop-color:#bfb68c;stop-opacity:1"/></linearGradient><linearGradient id="_Linear80" x1="0" y1="0" x2="1" y2="0" gradientUnits="userSpaceOnUse" gradientTransform="matrix(130.265,311.875,-311.875,130.265,3356.07,3177.43)"><stop offset="0" style="stop-color:#97abd6;stop-opacity:1"/><stop offset="1" style="stop-color:#6cc9c5;stop-opacity:1"/></linearGradient><linearGradient id="_Linear81" x1="0" y1="0" x2="1" y2="0" gradientUnits="userSpaceOnUse" gradientTransform="matrix(-67.0448,270.958,-270.958,-67.0448,2547.7,6044.06)"><stop offset="0" style="stop-color:#b25bd4;stop-opacity:1"/><stop offset="1" style="stop-color:#ff9600;stop-opacity:1"/></linearGradient><linearGradient id="_Linear82" x1="0" y1="0" x2="1" y2="0" gradientUnits="userSpaceOnUse" gradientTransform="matrix(99.6467,252.136,-252.136,99.6467,2381.01,6062.88)"><stop offset="0" style="stop-color:#97abd6;stop-opacity:1"/><stop offset="1" style="stop-color:#ffa200;stop-opacity:1"/></linearGradient><linearGradient id="_Linear83" x1="0" y1="0" x2="1" y2="0" gradientUnits="userSpaceOnUse" gradientTransform="matrix(-67.0448,270.958,-270.958,-67.0448,5296.54,895.847)"><stop offset="0" style="stop-color:#b25bd4;stop-opacity:1"/><stop offset="1" style="stop-color:#6cc9c5;stop-opacity:1"/></linearGradient><linearGradient id="_Linear84" x1="0" y1="0" x2="1" y2="0" gradientUnits="userSpaceOnUse" gradientTransform="matrix(130.265,311.875,-311.875,130.265,5099.23,854.931)"><stop offset="0" style="stop-color:#97abd6;stop-opacity:1"/><stop offset="1" style="stop-color:#6cc9c5;stop-opacity:1"/></linearGradient><linearGradient id="_Linear85" x1="0" y1="0" x2="1" y2="0" gradientUnits="userSpaceOnUse" gradientTransform="matrix(2078.39,1221.74,-1221.74,2078.39,2882.93,4706.19)"><stop offset="0" style="stop-color:#aed9b0;stop-opacity:0.760784"/><stop offset="1" style="stop-color:#8fdbab;stop-opacity:1"/></linearGradient></defs></svg>